<svg xmlns="http://www.w3.org/2000/svg" xmlns:xlink="http://www.w3.org/1999/xlink" width="200" height="200" class="icon" p-id="8472" t="1615196195559" version="1.1" viewBox="0 0 1024 1024"><defs><style type="text/css"/></defs><path d="M819.3536 921.6h102.4v-102.4h-102.4v102.4z m102.4-204.8h-102.4a102.4 102.4 0 0 0-102.4 102.4v102.4a102.4 102.4 0 0 0 102.4 102.4h102.4a102.4 102.4 0 0 0 102.4-102.4v-102.4a102.4 102.4 0 0 0-102.4-102.4z m-460.8 204.8h102.4v-102.4h-102.4v102.4z m102.4-204.8h-102.4a102.4 102.4 0 0 0-102.4 102.4v102.4a102.4 102.4 0 0 0 102.4 102.4h102.4a102.4 102.4 0 0 0 102.4-102.4v-102.4a102.4 102.4 0 0 0-102.4-102.4z m-460.8 204.8h102.4v-102.4h-102.4v102.4z m102.4-204.8h-102.4a102.4 102.4 0 0 0-102.4 102.4v102.4a102.4 102.4 0 0 0 102.4 102.4h102.4a102.4 102.4 0 0 0 102.4-102.4v-102.4a102.4 102.4 0 0 0-102.4-102.4z m614.4-153.6h102.4V460.8h-102.4v102.4z m102.4-204.8h-102.4a102.4 102.4 0 0 0-102.4 102.4v102.4a102.4 102.4 0 0 0 102.4 102.4h102.4a102.4 102.4 0 0 0 102.4-102.4V460.8a102.4 102.4 0 0 0-102.4-102.4z m-460.8 204.8h102.4V460.8h-102.4v102.4z m102.4-204.8h-102.4a102.4 102.4 0 0 0-102.4 102.4v102.4a102.4 102.4 0 0 0 102.4 102.4h102.4a102.4 102.4 0 0 0 102.4-102.4V460.8a102.4 102.4 0 0 0-102.4-102.4z m-460.8 204.8h102.4V460.8h-102.4v102.4z m102.4-204.8h-102.4a102.4 102.4 0 0 0-102.4 102.4v102.4a102.4 102.4 0 0 0 102.4 102.4h102.4a102.4 102.4 0 0 0 102.4-102.4V460.8a102.4 102.4 0 0 0-102.4-102.4z m614.4-153.6h102.4V102.4h-102.4v102.4z m102.4-204.8h-102.4a102.4 102.4 0 0 0-102.4 102.4v102.4a102.4 102.4 0 0 0 102.4 102.4h102.4a102.4 102.4 0 0 0 102.4-102.4V102.4a102.4 102.4 0 0 0-102.4-102.4z m-460.8 204.8h102.4V102.4h-102.4v102.4z m102.4-204.8h-102.4a102.4 102.4 0 0 0-102.4 102.4v102.4a102.4 102.4 0 0 0 102.4 102.4h102.4a102.4 102.4 0 0 0 102.4-102.4V102.4a102.4 102.4 0 0 0-102.4-102.4z m-460.8 204.8h102.4V102.4h-102.4v102.4z m102.4-204.8h-102.4a102.4 102.4 0 0 0-102.4 102.4v102.4a102.4 102.4 0 0 0 102.4 102.4h102.4a102.4 102.4 0 0 0 102.4-102.4V102.4a102.4 102.4 0 0 0-102.4-102.4z" p-id="8473"/></svg>