<svg xmlns="http://www.w3.org/2000/svg" xmlns:xlink="http://www.w3.org/1999/xlink" width="200" height="200" class="icon" p-id="64597" t="1615359727968" version="1.1" viewBox="0 0 1024 1024"><defs><style type="text/css"/></defs><path d="M896 1024 128 1024c-70.688 0-128-57.312-128-128L0 128c0-70.688 57.312-128 128-128l768 0c70.688 0 128 57.312 128 128l0 768C1024 966.688 966.688 1024 896 1024zM896 960c35.328 0 64-28.672 64-64l0-256.032-192-192-273.184 273.152L730.624 960 896 960zM64 896c0 35.328 28.672 64 64 64l512.032 0L318.24 638.208 64 865.952 64 896zM960 128c0-35.328-28.672-64-64-64L128 64C92.672 64 64 92.672 64 128l0 650.752L320 544l129.856 131.552L768 352l192 196.096L960 128zM256 384c-70.688 0-128-57.312-128-128s57.312-128 128-128 128 57.312 128 128S326.688 384 256 384zM256 192C220.672 192 192 220.672 192 256s28.672 64 64 64 64-28.672 64-64S291.328 192 256 192z" p-id="64598"/></svg>